<mxfile host="app.diagrams.net" modified="2022-03-11T15:08:23.288Z" agent="5.0 (Windows NT 10.0; Win64; x64) AppleWebKit/537.36 (KHTML, like Gecko) Chrome/99.0.4844.51 Safari/537.36" etag="vtvxZ2kpnlnPUbL3i_4m" version="16.6.7" type="github">
  <diagram name="Page-1" id="e7e014a7-5840-1c2e-5031-d8a46d1fe8dd">
    <mxGraphModel dx="1422" dy="772" grid="1" gridSize="10" guides="1" tooltips="1" connect="1" arrows="1" fold="1" page="1" pageScale="1" pageWidth="1169" pageHeight="826" background="none" math="0" shadow="0">
      <root>
        <mxCell id="0" />
        <mxCell id="1" parent="0" />
        <mxCell id="2" value="Conv2D_impl.ts" style="swimlane;whiteSpace=wrap" parent="1" vertex="1">
          <mxGeometry x="110" y="180" width="355.5" height="570" as="geometry" />
        </mxCell>
        <mxCell id="12" value="" style="edgeStyle=elbowEdgeStyle;elbow=horizontal;strokeColor=#FF0000;endArrow=open;endFill=1;rounded=0" parent="2" source="10" edge="1">
          <mxGeometry width="100" height="100" relative="1" as="geometry">
            <mxPoint x="160" y="290" as="sourcePoint" />
            <mxPoint x="115" y="135" as="targetPoint" />
            <Array as="points">
              <mxPoint x="30" y="250" />
            </Array>
          </mxGeometry>
        </mxCell>
        <mxCell id="dmiLLpiRKOSgoRraW0_5-43" value="conv2DImpl" style="rounded=0;whiteSpace=wrap;html=1;" vertex="1" parent="2">
          <mxGeometry x="30" y="52" width="120" height="60" as="geometry" />
        </mxCell>
        <mxCell id="dmiLLpiRKOSgoRraW0_5-48" value="conv2dByMatMul" style="whiteSpace=wrap;html=1;fillColor=rgb(255, 255, 255);strokeColor=rgb(0, 0, 0);fontColor=rgb(0, 0, 0);rounded=0;" vertex="1" parent="2">
          <mxGeometry x="200" y="182" width="120" height="60" as="geometry" />
        </mxCell>
        <mxCell id="dmiLLpiRKOSgoRraW0_5-44" value="SameSize&lt;br&gt;1x1 kernels" style="rhombus;whiteSpace=wrap;html=1;fillColor=rgb(255, 255, 255);strokeColor=rgb(0, 0, 0);fontColor=rgb(0, 0, 0);rounded=0;" vertex="1" parent="2">
          <mxGeometry x="49" y="172" width="80" height="80" as="geometry" />
        </mxCell>
        <mxCell id="dmiLLpiRKOSgoRraW0_5-45" value="" style="edgeStyle=orthogonalEdgeStyle;orthogonalLoop=1;jettySize=auto;html=1;fillColor=#e51400;strokeColor=#ff0000;curved=1;exitX=0.489;exitY=1.03;exitDx=0;exitDy=0;exitPerimeter=0;" edge="1" parent="2" source="dmiLLpiRKOSgoRraW0_5-43" target="dmiLLpiRKOSgoRraW0_5-44">
          <mxGeometry relative="1" as="geometry">
            <mxPoint x="120" y="152" as="sourcePoint" />
          </mxGeometry>
        </mxCell>
        <mxCell id="dmiLLpiRKOSgoRraW0_5-49" value="yes" style="edgeStyle=orthogonalEdgeStyle;curved=1;orthogonalLoop=1;jettySize=auto;html=1;entryX=-0.014;entryY=0.501;entryDx=0;entryDy=0;entryPerimeter=0;align=right;verticalAlign=bottom;labelPosition=left;verticalLabelPosition=top;" edge="1" parent="2" source="dmiLLpiRKOSgoRraW0_5-44" target="dmiLLpiRKOSgoRraW0_5-48">
          <mxGeometry relative="1" as="geometry" />
        </mxCell>
        <mxCell id="dmiLLpiRKOSgoRraW0_5-53" value="BatchMatMul_impl.ts" style="swimlane;whiteSpace=wrap" vertex="1" parent="1">
          <mxGeometry x="465.5" y="180" width="184.5" height="570" as="geometry" />
        </mxCell>
        <mxCell id="dmiLLpiRKOSgoRraW0_5-64" value="batchMatMulImpl" style="whiteSpace=wrap;html=1;fillColor=rgb(255, 255, 255);strokeColor=rgb(0, 0, 0);fontColor=rgb(0, 0, 0);rounded=0;" vertex="1" parent="dmiLLpiRKOSgoRraW0_5-53">
          <mxGeometry x="14.5" y="52" width="120" height="60" as="geometry" />
        </mxCell>
        <mxCell id="dmiLLpiRKOSgoRraW0_5-96" value="&lt;font style=&quot;font-size: 12px;&quot;&gt;uesVec4&lt;br style=&quot;font-size: 12px;&quot;&gt;&lt;/font&gt;" style="rhombus;whiteSpace=wrap;html=1;fillColor=#fad7ac;strokeColor=#b46504;rounded=0;fontSize=12;" vertex="1" parent="dmiLLpiRKOSgoRraW0_5-53">
          <mxGeometry x="34.5" y="470" width="80" height="80" as="geometry" />
        </mxCell>
        <mxCell id="dmiLLpiRKOSgoRraW0_5-65" value="" style="edgeStyle=orthogonalEdgeStyle;curved=1;orthogonalLoop=1;jettySize=auto;html=1;strokeColor=#ff0000;" edge="1" parent="1" source="dmiLLpiRKOSgoRraW0_5-48" target="dmiLLpiRKOSgoRraW0_5-64">
          <mxGeometry relative="1" as="geometry" />
        </mxCell>
        <mxCell id="dmiLLpiRKOSgoRraW0_5-70" value="" style="edgeStyle=orthogonalEdgeStyle;curved=1;orthogonalLoop=1;jettySize=auto;html=1;strokeColor=#ff0000;" edge="1" parent="1" source="dmiLLpiRKOSgoRraW0_5-67" target="dmiLLpiRKOSgoRraW0_5-69">
          <mxGeometry relative="1" as="geometry" />
        </mxCell>
        <mxCell id="dmiLLpiRKOSgoRraW0_5-86" value="yes" style="edgeLabel;html=1;align=center;verticalAlign=middle;resizable=0;points=[];" vertex="1" connectable="0" parent="dmiLLpiRKOSgoRraW0_5-70">
          <mxGeometry x="-0.8274" y="1" relative="1" as="geometry">
            <mxPoint as="offset" />
          </mxGeometry>
        </mxCell>
        <mxCell id="dmiLLpiRKOSgoRraW0_5-88" value="" style="edgeStyle=orthogonalEdgeStyle;curved=1;orthogonalLoop=1;jettySize=auto;html=1;strokeColor=#ff0000;" edge="1" parent="1" source="dmiLLpiRKOSgoRraW0_5-67" target="dmiLLpiRKOSgoRraW0_5-87">
          <mxGeometry relative="1" as="geometry" />
        </mxCell>
        <mxCell id="dmiLLpiRKOSgoRraW0_5-89" value="no" style="edgeLabel;html=1;align=center;verticalAlign=middle;resizable=0;points=[];" vertex="1" connectable="0" parent="dmiLLpiRKOSgoRraW0_5-88">
          <mxGeometry x="-0.7638" y="2" relative="1" as="geometry">
            <mxPoint as="offset" />
          </mxGeometry>
        </mxCell>
        <mxCell id="dmiLLpiRKOSgoRraW0_5-67" value="M * N &amp;lt;= 32" style="rhombus;whiteSpace=wrap;html=1;fillColor=#fad7ac;strokeColor=#b46504;rounded=0;" vertex="1" parent="1">
          <mxGeometry x="500" y="362" width="80" height="80" as="geometry" />
        </mxCell>
        <mxCell id="dmiLLpiRKOSgoRraW0_5-68" value="" style="edgeStyle=orthogonalEdgeStyle;curved=1;orthogonalLoop=1;jettySize=auto;html=1;strokeColor=#ff0000;" edge="1" parent="1" source="dmiLLpiRKOSgoRraW0_5-64" target="dmiLLpiRKOSgoRraW0_5-67">
          <mxGeometry relative="1" as="geometry" />
        </mxCell>
        <mxCell id="dmiLLpiRKOSgoRraW0_5-82" value="matmul_reduce.ts" style="swimlane;" vertex="1" parent="1">
          <mxGeometry x="650" y="180" width="200" height="570" as="geometry" />
        </mxCell>
        <mxCell id="dmiLLpiRKOSgoRraW0_5-69" value="MatMulReduceProgram" style="whiteSpace=wrap;html=1;fillColor=rgb(255, 255, 255);strokeColor=rgb(0, 0, 0);fontColor=rgb(0, 0, 0);rounded=0;" vertex="1" parent="dmiLLpiRKOSgoRraW0_5-82">
          <mxGeometry x="20" y="50" width="120" height="60" as="geometry" />
        </mxCell>
        <mxCell id="dmiLLpiRKOSgoRraW0_5-83" value="workgroupsize&lt;br&gt;[256,1,1]" style="ellipse;whiteSpace=wrap;html=1;fillColor=#b0e3e6;strokeColor=#0e8088;rounded=0;" vertex="1" parent="dmiLLpiRKOSgoRraW0_5-82">
          <mxGeometry x="60" y="182" width="120" height="60" as="geometry" />
        </mxCell>
        <mxCell id="dmiLLpiRKOSgoRraW0_5-84" value="" style="edgeStyle=orthogonalEdgeStyle;curved=1;orthogonalLoop=1;jettySize=auto;html=1;strokeColor=#ff0000;" edge="1" parent="dmiLLpiRKOSgoRraW0_5-82" source="dmiLLpiRKOSgoRraW0_5-69" target="dmiLLpiRKOSgoRraW0_5-83">
          <mxGeometry relative="1" as="geometry" />
        </mxCell>
        <mxCell id="dmiLLpiRKOSgoRraW0_5-91" value="" style="edgeStyle=orthogonalEdgeStyle;curved=1;orthogonalLoop=1;jettySize=auto;html=1;fontSize=6;strokeColor=#ff0000;" edge="1" parent="1" source="dmiLLpiRKOSgoRraW0_5-87" target="dmiLLpiRKOSgoRraW0_5-90">
          <mxGeometry relative="1" as="geometry" />
        </mxCell>
        <mxCell id="dmiLLpiRKOSgoRraW0_5-95" value="yes" style="edgeLabel;html=1;align=center;verticalAlign=middle;resizable=0;points=[];fontSize=12;" vertex="1" connectable="0" parent="dmiLLpiRKOSgoRraW0_5-91">
          <mxGeometry x="-0.8257" relative="1" as="geometry">
            <mxPoint as="offset" />
          </mxGeometry>
        </mxCell>
        <mxCell id="dmiLLpiRKOSgoRraW0_5-97" value="no" style="edgeStyle=orthogonalEdgeStyle;curved=1;orthogonalLoop=1;jettySize=auto;html=1;fontSize=12;strokeColor=#ff0000;" edge="1" parent="1" source="dmiLLpiRKOSgoRraW0_5-87" target="dmiLLpiRKOSgoRraW0_5-96">
          <mxGeometry relative="1" as="geometry" />
        </mxCell>
        <mxCell id="dmiLLpiRKOSgoRraW0_5-87" value="&lt;font style=&quot;font-size: 6px&quot;&gt;M&amp;lt;=16&amp;amp;&amp;amp;(N&amp;lt;=512 || K&amp;gt;2N)&lt;br&gt;N&amp;lt;=16&amp;amp;&amp;amp;(M&amp;lt;=512 || K&amp;gt;2M)&lt;br&gt;&lt;/font&gt;" style="rhombus;whiteSpace=wrap;html=1;fillColor=#fad7ac;strokeColor=#b46504;rounded=0;" vertex="1" parent="1">
          <mxGeometry x="500" y="522" width="80" height="80" as="geometry" />
        </mxCell>
        <mxCell id="dmiLLpiRKOSgoRraW0_5-92" value="matmul_small_output_size_webgpu.ts" style="swimlane;fontSize=12;" vertex="1" parent="1">
          <mxGeometry x="850" y="180" width="200" height="570" as="geometry" />
        </mxCell>
        <mxCell id="dmiLLpiRKOSgoRraW0_5-90" value="MatMulSmallOutputSizeProgram" style="whiteSpace=wrap;html=1;fillColor=rgb(255, 255, 255);strokeColor=rgb(0, 0, 0);fontColor=rgb(0, 0, 0);rounded=0;" vertex="1" parent="dmiLLpiRKOSgoRraW0_5-92">
          <mxGeometry x="30" y="320" width="120" height="60" as="geometry" />
        </mxCell>
        <mxCell id="dmiLLpiRKOSgoRraW0_5-93" value="workgroupsize&lt;br&gt;[8,16,1]" style="ellipse;whiteSpace=wrap;html=1;fillColor=#b0e3e6;strokeColor=#0e8088;rounded=0;" vertex="1" parent="dmiLLpiRKOSgoRraW0_5-92">
          <mxGeometry x="50" y="210" width="120" height="60" as="geometry" />
        </mxCell>
        <mxCell id="dmiLLpiRKOSgoRraW0_5-94" value="" style="edgeStyle=orthogonalEdgeStyle;curved=1;orthogonalLoop=1;jettySize=auto;html=1;fontSize=12;strokeColor=#ff0000;" edge="1" parent="dmiLLpiRKOSgoRraW0_5-92" source="dmiLLpiRKOSgoRraW0_5-90" target="dmiLLpiRKOSgoRraW0_5-93">
          <mxGeometry relative="1" as="geometry" />
        </mxCell>
        <mxCell id="dmiLLpiRKOSgoRraW0_5-99" value="" style="edgeStyle=orthogonalEdgeStyle;curved=1;orthogonalLoop=1;jettySize=auto;html=1;fontSize=12;strokeColor=#ff0000;" edge="1" parent="1" source="dmiLLpiRKOSgoRraW0_5-96" target="dmiLLpiRKOSgoRraW0_5-98">
          <mxGeometry relative="1" as="geometry" />
        </mxCell>
        <mxCell id="dmiLLpiRKOSgoRraW0_5-102" value="yes" style="edgeLabel;html=1;align=center;verticalAlign=middle;resizable=0;points=[];fontSize=12;" vertex="1" connectable="0" parent="dmiLLpiRKOSgoRraW0_5-99">
          <mxGeometry x="-0.9031" relative="1" as="geometry">
            <mxPoint as="offset" />
          </mxGeometry>
        </mxCell>
        <mxCell id="dmiLLpiRKOSgoRraW0_5-100" value="matmul_packed_vec4_webgpu.ts" style="swimlane;fontSize=12;" vertex="1" parent="1">
          <mxGeometry x="1050" y="180" width="200" height="570" as="geometry" />
        </mxCell>
        <mxCell id="dmiLLpiRKOSgoRraW0_5-98" value="MatMulPackedVec4Program" style="whiteSpace=wrap;html=1;fillColor=rgb(255, 255, 255);strokeColor=rgb(0, 0, 0);fontColor=rgb(0, 0, 0);rounded=0;" vertex="1" parent="dmiLLpiRKOSgoRraW0_5-100">
          <mxGeometry x="50" y="440" width="120" height="60" as="geometry" />
        </mxCell>
        <mxCell id="dmiLLpiRKOSgoRraW0_5-101" value="matmul_packed_webgpu.ts" style="swimlane;fontSize=12;" vertex="1" parent="1">
          <mxGeometry x="1250" y="180" width="200" height="570" as="geometry" />
        </mxCell>
        <mxCell id="dmiLLpiRKOSgoRraW0_5-109" value="" style="edgeStyle=orthogonalEdgeStyle;curved=1;orthogonalLoop=1;jettySize=auto;html=1;fontSize=12;strokeColor=#ff0000;" edge="1" parent="dmiLLpiRKOSgoRraW0_5-101" source="dmiLLpiRKOSgoRraW0_5-105" target="dmiLLpiRKOSgoRraW0_5-108">
          <mxGeometry relative="1" as="geometry" />
        </mxCell>
        <mxCell id="dmiLLpiRKOSgoRraW0_5-105" value="MatMulPackedProgram" style="whiteSpace=wrap;html=1;fillColor=rgb(255, 255, 255);strokeColor=rgb(0, 0, 0);fontColor=rgb(0, 0, 0);rounded=0;" vertex="1" parent="dmiLLpiRKOSgoRraW0_5-101">
          <mxGeometry x="30" y="490" width="120" height="60" as="geometry" />
        </mxCell>
        <mxCell id="dmiLLpiRKOSgoRraW0_5-108" value="workgroupsize&lt;br&gt;[16,16,1]" style="ellipse;whiteSpace=wrap;html=1;fillColor=#b0e3e6;strokeColor=#0e8088;rounded=0;" vertex="1" parent="dmiLLpiRKOSgoRraW0_5-101">
          <mxGeometry x="30" y="350" width="120" height="60" as="geometry" />
        </mxCell>
        <mxCell id="dmiLLpiRKOSgoRraW0_5-103" value="workgroupsize&lt;br&gt;[8,8,1]" style="ellipse;whiteSpace=wrap;html=1;fillColor=#b0e3e6;strokeColor=#0e8088;rounded=0;" vertex="1" parent="1">
          <mxGeometry x="1100" y="480" width="120" height="60" as="geometry" />
        </mxCell>
        <mxCell id="dmiLLpiRKOSgoRraW0_5-104" value="" style="edgeStyle=orthogonalEdgeStyle;curved=1;orthogonalLoop=1;jettySize=auto;html=1;fontSize=12;strokeColor=#ff0000;" edge="1" parent="1" source="dmiLLpiRKOSgoRraW0_5-98" target="dmiLLpiRKOSgoRraW0_5-103">
          <mxGeometry relative="1" as="geometry" />
        </mxCell>
        <mxCell id="dmiLLpiRKOSgoRraW0_5-106" value="" style="edgeStyle=orthogonalEdgeStyle;curved=1;orthogonalLoop=1;jettySize=auto;html=1;fontSize=12;strokeColor=#ff0000;exitX=0.5;exitY=1;exitDx=0;exitDy=0;" edge="1" parent="1" source="dmiLLpiRKOSgoRraW0_5-96" target="dmiLLpiRKOSgoRraW0_5-105">
          <mxGeometry relative="1" as="geometry" />
        </mxCell>
        <mxCell id="dmiLLpiRKOSgoRraW0_5-107" value="no" style="edgeLabel;html=1;align=center;verticalAlign=middle;resizable=0;points=[];fontSize=12;" vertex="1" connectable="0" parent="dmiLLpiRKOSgoRraW0_5-106">
          <mxGeometry x="-0.8613" y="6" relative="1" as="geometry">
            <mxPoint as="offset" />
          </mxGeometry>
        </mxCell>
      </root>
    </mxGraphModel>
  </diagram>
</mxfile>
